name D:\school\WTK\thesis\model\3dpredictsim\Results\MidTarsalJoint\Fal_s1_bCst_PF_Natali2010_ls150_MT_k5000_MTP_T5_ig23.mot
datacolumns 128
datarows 4
range 0.00000000 0.03314640
endheader
time	pelvis_tilt	pelvis_list	pelvis_rotation	pelvis_tx	pelvis_ty	pelvis_tz	hip_flexion_l	hip_adduction_l	hip_rotation_l	hip_flexion_r	hip_adduction_r	hip_rotation_r	knee_angle_l	knee_angle_r	ankle_angle_l	ankle_angle_r	subtalar_angle_l	subtalar_angle_r	mtj_angle_l	mtj_angle_r	mtp_angle_l	mtp_angle_r	lumbar_extension	lumbar_bending	lumbar_rotation	arm_flex_l	arm_add_l	arm_rot_l	arm_flex_r	arm_add_r	arm_rot_r	elbow_flex_l	elbow_flex_r	pro_sup_l	pro_sup_r	glut_med1_l/activation	glut_med2_l/activation	glut_med3_l/activation	glut_min1_l/activation	glut_min2_l/activation	glut_min3_l/activation	semimem_l/activation	semiten_l/activation	bifemlh_l/activation	bifemsh_l/activation	sar_l/activation	add_long_l/activation	add_brev_l/activation	add_mag1_l/activation	add_mag2_l/activation	add_mag3_l/activation	tfl_l/activation	pect_l/activation	grac_l/activation	glut_max1_l/activation	glut_max2_l/activation	glut_max3_l/activation	iliacus_l/activation	psoas_l/activation	quad_fem_l/activation	gem_l/activation	peri_l/activation	rect_fem_l/activation	vas_med_l/activation	vas_int_l/activation	vas_lat_l/activation	med_gas_l/activation	lat_gas_l/activation	soleus_l/activation	tib_post_l/activation	flex_dig_l/activation	flex_hal_l/activation	tib_ant_l/activation	per_brev_l/activation	per_long_l/activation	per_tert_l/activation	ext_dig_l/activation	ext_hal_l/activation	ercspn_l/activation	intobl_l/activation	extobl_l/activation	glut_med1_r/activation	glut_med2_r/activation	glut_med3_r/activation	glut_min1_r/activation	glut_min2_r/activation	glut_min3_r/activation	semimem_r/activation	semiten_r/activation	bifemlh_r/activation	bifemsh_r/activation	sar_r/activation	add_long_r/activation	add_brev_r/activation	add_mag1_r/activation	add_mag2_r/activation	add_mag3_r/activation	tfl_r/activation	pect_r/activation	grac_r/activation	glut_max1_r/activation	glut_max2_r/activation	glut_max3_r/activation	iliacus_r/activation	psoas_r/activation	quad_fem_r/activation	gem_r/activation	peri_r/activation	rect_fem_r/activation	vas_med_r/activation	vas_int_r/activation	vas_lat_r/activation	med_gas_r/activation	lat_gas_r/activation	soleus_r/activation	tib_post_r/activation	flex_dig_r/activation	flex_hal_r/activation	tib_ant_r/activation	per_brev_r/activation	per_long_r/activation	per_tert_r/activation	ext_dig_r/activation	ext_hal_r/activation	ercspn_r/activation	intobl_r/activation	extobl_r/activation	
          0.00000000	         -2.93010992	         -1.96692070	          4.80806036	          0.00000000	          0.91966450	         -0.00195401	        -17.77124154	         -0.82970246	          6.09128993	         29.42598867	          3.37977858	         -2.27859522	         -5.45026272	        -12.39782242	          0.17766143	          6.34915505	          7.26161603	         -4.70764021	          0.33450342	         -0.00078965	         20.10744684	         -0.89495388	         -2.07002651	          0.24037334	         -1.88421139	          5.44087385	        -13.45566731	         16.96162016	         -4.32246850	        -13.46886016	          7.58285257	         31.56731022	         16.04207386	         86.51662706	         86.51662706	          0.26602223	          0.09832120	          0.07411638	          0.30059879	          0.19328154	          0.11283323	          0.05000105	          0.05000034	          0.05000023	          0.06062618	          0.10364831	          0.09720551	          0.05000249	          0.05000159	          0.05000268	          0.05000094	          0.31070950	          0.08633445	          0.05000400	          0.05000537	          0.05000375	          0.05000300	          0.42202008	          0.66831424	          0.05000202	          0.05000095	          0.06238018	          0.22607848	          0.05000730	          0.05000687	          0.05000507	          0.30044290	          0.41070443	          0.29941363	          0.29942036	          0.31815526	          0.40341536	          0.05000006	          0.05436345	          0.11791874	          0.05000035	          0.05000009	          0.05000034	          0.05000005	          0.05000009	          0.05000011	          0.05919870	          0.05920600	          0.05000025	          0.05920735	          0.05920728	          0.05000507	          0.11983353	          0.05001490	          0.23094874	          0.05000019	          0.05000049	          0.13784774	          0.30718486	          0.15351538	          0.14191595	          0.11190146	          0.05000022	          0.08295410	          0.07595404	          0.05000067	          0.12936964	          0.16075635	          0.05325273	          0.05000040	          0.15106177	          0.25807687	          0.12973536	          0.05531028	          0.14029306	          0.13540256	          0.12346464	          0.05003914	          0.05000363	          0.05292059	          0.05000003	          0.05000065	          0.05000026	          0.56949034	          0.27490369	          0.16987978	          0.24812350	          0.49377398	          0.23097295	          0.06116089	          0.10914277	          0.10322514	
          0.01104880	         -2.92692105	         -2.06590287	          5.10595858	          0.01648301	          0.91859605	         -0.00176221	        -17.67264809	         -1.12835889	          5.88385186	         28.84565493	          3.70363203	         -2.04044694	         -7.31040117	        -12.61972977	         -0.49770874	          5.73022232	          8.11746167	         -5.06378704	          0.26134852	         -0.00835614	         21.11881393	         -0.87791135	         -1.88030645	          0.45016101	         -1.94505561	          5.20189101	        -13.46272910	         17.26640186	         -5.16084878	        -13.46944738	          7.30832096	         32.69937805	         15.67195168	         86.51662706	         86.51662706	          0.22465323	          0.08303131	          0.06259059	          0.25385298	          0.16322442	          0.09528661	          0.05000522	          0.05000129	          0.05000151	          0.05119833	          0.08753027	          0.17955054	          0.06226323	          0.06437047	          0.05917751	          0.05921005	          0.26239129	          0.07304850	          0.05000601	          0.05000477	          0.05000361	          0.05000480	          0.35639185	          0.61819959	          0.05000093	          0.05920292	          0.05920638	          0.19329085	          0.16802150	          0.16403258	          0.13901096	          0.25372102	          0.34683583	          0.25693771	          0.27935807	          0.26868121	          0.35064257	          0.05000007	          0.05000020	          0.13210152	          0.05000022	          0.05000007	          0.05000032	          0.05491035	          0.06263786	          0.05439407	          0.05000002	          0.05000010	          0.10669104	          0.05000009	          0.05000011	          0.05000019	          0.10119835	          0.05000083	          0.19503398	          0.05000110	          0.05917908	          0.11641141	          0.25941509	          0.30890399	          0.21587340	          0.13341609	          0.05000102	          0.07005719	          0.12241714	          0.07029867	          0.11716277	          0.13575796	          0.05000017	          0.06434805	          0.40485708	          0.21794340	          0.10956028	          0.06049625	          0.13254740	          0.14577380	          0.12285749	          0.05000037	          0.05922027	          0.05000005	          0.06982136	          0.05002369	          0.05920935	          0.48092897	          0.32538686	          0.20893949	          0.20953799	          0.42358229	          0.19505443	          0.05164977	          0.09216999	          0.08717261	
          0.02209760	         -2.92016525	         -2.16885293	          5.37798513	          0.03323156	          0.91759827	         -0.00158164	        -17.49540831	         -1.42743961	          5.66396812	         28.15195466	          3.95373361	         -1.78424366	         -9.29976522	        -13.17659869	         -1.34280280	          5.22805387	          8.93156923	         -5.44296916	          0.17860087	         -0.01217658	         22.00049299	         -0.94505126	         -1.67194049	          0.67115153	         -1.99480536	          4.89170833	        -13.46714931	         17.50114525	         -6.02716691	        -13.47565684	          7.07882513	         33.81647827	         15.35846998	         86.51662706	         86.51662706	          0.31603563	          0.07011915	          0.05285720	          0.29059333	          0.13784152	          0.08046867	          0.05000219	          0.05000042	          0.05000035	          0.05000031	          0.07391888	          0.15162911	          0.05921146	          0.05436083	          0.05000335	          0.05000330	          0.22708473	          0.07028785	          0.05000208	          0.05000423	          0.05000276	          0.05000221	          0.30096955	          0.58284141	          0.05000049	          0.05000113	          0.05000037	          0.16323236	          0.14189359	          0.13852495	          0.11739425	          0.21426486	          0.29289941	          0.21698133	          0.23591645	          0.22689912	          0.29611474	          0.05000004	          0.10337699	          0.15477265	          0.05000024	          0.05000006	          0.05000026	          0.05139739	          0.05289706	          0.05000009	          0.23077391	          0.22035185	          0.27152624	          0.33768064	          0.21428942	          0.18842878	          0.09536018	          0.05000116	          0.16470574	          0.05000282	          0.05000371	          0.09830837	          0.21907360	          0.26086648	          0.18230317	          0.12044660	          0.05000103	          0.05920754	          0.10338080	          0.11572523	          0.13709802	          0.11464652	          0.05920719	          0.05434184	          0.34189786	          0.18405123	          0.20106040	          0.05108853	          0.11193510	          0.12310468	          0.10375204	          0.05000151	          0.05001120	          0.05129571	          0.05896354	          0.05000071	          0.05000214	          0.55418341	          0.32005300	          0.17644762	          0.33019151	          0.51603632	          0.16472205	          0.06227620	          0.11641233	          0.07361641	
          0.03314640	         -2.91203521	         -2.26590574	          5.61818914	          0.05004561	          0.91669061	         -0.00137850	        -17.21239068	         -1.71739666	          5.44710795	         27.40072714	          4.18687583	         -1.53052635	        -11.44245756	        -13.68488933	         -2.35432261	          4.77850390	          9.70664626	         -5.82902725	          0.09839067	         -0.01515259	         22.69199774	         -0.93625747	         -1.46662359	          0.89325733	         -2.03649281	          4.54224730	        -13.47678585	         17.68854252	         -6.87570473	        -13.48203017	          6.89777148	         34.90228610	         15.07857405	         86.51662706	         86.51662706	          0.30298884	          0.05921497	          0.05000014	          0.27026566	          0.11640590	          0.06795508	          0.05000387	          0.05000043	          0.05000036	          0.05000034	          0.06242414	          0.16844615	          0.05000901	          0.05000336	          0.05000481	          0.05000345	          0.20350234	          0.05936128	          0.05000165	          0.05000333	          0.05000222	          0.05000180	          0.25416586	          0.53770489	          0.05000030	          0.05000115	          0.05000038	          0.13784819	          0.13113325	          0.13693280	          0.13784501	          0.18094453	          0.24735063	          0.18323856	          0.19922930	          0.19161433	          0.25006619	          0.05000005	          0.11351982	          0.15314809	          0.05000032	          0.05000017	          0.05000027	          0.07512964	          0.05000002	          0.05000007	          0.31458637	          0.31466940	          0.34871740	          0.28516827	          0.18096643	          0.17445161	          0.08053105	          0.08424581	          0.13909246	          0.06814024	          0.05000111	          0.08302051	          0.18500559	          0.22029969	          0.16592294	          0.16145749	          0.05000054	          0.05000305	          0.09878053	          0.21764832	          0.18761810	          0.16008027	          0.05000016	          0.05000014	          0.28872947	          0.15542956	          0.16979417	          0.05000010	          0.10236710	          0.14828773	          0.11031839	          0.05000005	          0.05000009	          0.05000001	          0.05000002	          0.05000019	          0.05000017	          0.60891069	          0.31130255	          0.16814007	          0.55904087	          0.54066034	          0.28219759	          0.08145911	          0.09830911	          0.06216833	
